<svg width="29" height="28" viewBox="0 0 29 28" fill="none" xmlns="http://www.w3.org/2000/svg">
<path d="M17.7464 7.00092C18.1339 7.00092 18.4481 6.68732 18.4481 6.30036C18.4481 5.95652 18.1999 5.67036 17.8726 5.61114L17.7464 5.5998H3.74979C3.36226 5.5998 3.0481 5.9134 3.0481 6.30036C3.0481 6.64434 3.29632 6.93036 3.62365 6.98972L3.74979 7.00092H17.7464ZM24.7468 15.3899C25.1341 15.3899 25.4481 15.0763 25.4481 14.6893C25.4481 14.3454 25.2 14.0593 24.8728 14L24.7468 13.9887H3.74943C3.36209 13.9887 3.0481 14.3024 3.0481 14.6893C3.0481 15.0333 3.29619 15.3193 3.62336 15.3786L3.74943 15.3899H24.7468ZM19.1484 23.7998C19.5358 23.7998 19.8498 23.4861 19.8498 23.0992C19.8498 22.7553 19.6017 22.4692 19.2745 22.4099L19.1484 22.3986H3.74943C3.36209 22.3986 3.0481 22.7123 3.0481 23.0992C3.0481 23.4431 3.29619 23.7292 3.62336 23.7885L3.74943 23.7998H19.1484Z" fill="black"/>
</svg>
