<svg width="232" height="476" viewBox="0 0 232 476" fill="none" xmlns="http://www.w3.org/2000/svg">
<path fill-rule="evenodd" clip-rule="evenodd" d="M-188.82 322.738V322.738L-189.261 320.301L-189.756 317.897L-190.306 315.525L-190.914 313.181L-191.58 310.86L-192.305 308.561L-193.088 306.278L-193.927 304.007L-194.821 301.746L-195.768 299.49L-196.765 297.234L-197.808 294.976L-198.892 292.712L-200.014 290.437L-201.169 288.15L-202.351 285.846L-203.554 283.522L-204.773 281.177L-206.001 278.808L-207.232 276.413L-208.46 273.991L-209.677 271.54L-210.877 269.06L-212.055 266.549L-213.202 264.008L-214.314 261.437L-215.385 258.837L-216.407 256.207L-217.377 253.55L-218.29 250.866L-219.14 248.157L-219.924 245.425L-220.638 242.672L-221.28 239.9L-221.847 237.11L-222.338 234.306L-222.752 231.489L-223.088 228.661L-223.346 225.826L-223.527 222.983L-223.631 220.137L-223.659 217.288L-223.611 214.438L-223.491 211.59L-223.298 208.744L-223.036 205.902L-222.706 203.066L-222.312 200.235L-221.854 197.412L-221.337 194.597L-220.764 191.79L-220.136 188.992L-219.457 186.202L-218.731 183.421L-217.96 180.648L-217.147 177.883L-216.296 175.126L-215.409 172.374L-214.489 169.629L-213.54 166.887L-212.562 164.149L-211.56 161.413L-210.535 158.678L-209.49 155.941L-208.426 153.202L-207.344 150.46L-206.246 147.711L-205.134 144.956L-204.008 142.193L-202.869 139.419L-201.716 136.635L-200.551 133.838L-199.372 131.028L-198.18 128.204L-196.974 125.364L-195.752 122.509L-194.514 119.637L-193.259 116.749L-191.984 113.845L-190.687 110.925L-189.368 107.989L-188.023 105.038L-186.651 102.074L-185.248 99.0973L-183.812 96.1104L-182.341 93.1151L-180.832 90.1137L-179.281 87.1086L-177.687 84.1029L-176.047 81.0994L-174.358 78.1015L-172.617 75.1128L-170.823 72.1368L-168.972 69.1774L-167.064 66.2387L-165.095 63.3247L-163.066 60.4395L-160.973 57.5875L-158.816 54.7729L-156.594 51.9999L-154.306 49.2727L-151.951 46.5955L-149.531 43.9724L-147.044 41.4072L-144.492 38.9039L-141.874 36.4659L-139.192 34.0967L-136.447 31.7995L-133.64 29.5773L-130.773 27.4328L-127.847 25.3684L-124.866 23.3862L-121.83 21.4882L-118.742 19.6758L-115.605 17.9503L-112.422 16.3126L-109.194 14.7631L-105.925 13.3022L-102.618 11.9296L-99.275 10.6448L-95.8995 9.44715L-92.4943 8.33543L-89.0621 7.3082L-85.6058 6.36376L-82.128 5.5001L-78.6313 4.71502L-75.1183 4.00596L-71.5912 3.37026L-68.0524 2.80503L-64.5039 2.30721L-60.9475 1.87364L-57.3851 1.50099L-53.8181 1.18592L-50.2479 0.924993L-46.6756 0.714777L-43.1022 0.551899L-39.5284 0.432939L-35.9549 0.354618L-32.3819 0.313695L-28.8097 0.307157L-25.2384 0.332062L-21.6678 0.38569L-18.0976 0.465558L-14.5275 0.569318L-10.9569 0.694974L-7.3853 0.840744L-3.81192 1.00519L-0.236079 1.18711L3.34303 1.38564L6.92616 1.60023L10.5141 1.83068L14.1076 2.0771L17.7074 2.33993L21.3141 2.61988L24.9282 2.91781L28.5504 3.23451L32.1812 3.5709L35.8209 3.9279L39.4701 4.30654L43.129 4.70794L46.798 5.13336L50.4771 5.58406L54.1665 6.06153L57.8662 6.56732L61.576 7.10316L65.2956 7.67083L69.0247 8.2723L72.7627 8.90961L76.5088 9.58495L80.2623 10.3005L84.022 11.0587L87.7869 11.8619L91.5554 12.7125L95.3261 13.6132L99.0972 14.5662L102.867 15.5744L106.633 16.64L110.394 17.7655L114.146 18.9534L117.888 20.2059L121.617 21.5252L125.329 22.9134L129.023 24.3724L132.696 25.9039L136.344 27.5096L139.964 29.1907L143.554 30.9484L147.11 32.7838L150.63 34.6974L154.109 36.6902L157.546 38.7625L160.937 40.9148L164.278 43.1474L167.567 45.4604L170.8 47.8536L173.973 50.3268L177.085 52.8795L180.13 55.5112L183.108 58.2211L186.014 61.008L188.845 63.8709L191.599 66.8084L194.274 69.819L196.866 72.9009L199.372 76.0523L201.792 79.271L204.123 82.5549L206.362 85.9015L208.508 89.3085L210.56 92.7731L212.516 96.2926L214.375 99.8641L216.135 103.485L217.797 107.151L219.36 110.861L220.823 114.61L222.186 118.396L223.448 122.215L224.612 126.064L225.676 129.939L226.641 133.839L227.508 137.758L228.278 141.694L228.952 145.645L229.531 149.606L230.017 153.575L230.411 157.549L230.715 161.524L230.929 165.499L231.057 169.47L231.099 173.436L231.055 177.393L230.928 181.339L230.718 185.273L230.425 189.193L230.049 193.097L229.591 196.982L229.051 200.848L228.428 204.692L227.722 208.512L226.933 212.308L226.061 216.076L225.105 219.816L224.066 223.525L222.941 227.202L221.733 230.844L220.439 234.449L219.06 238.017L217.597 241.543L216.049 245.027L214.418 248.466L212.702 251.858L210.905 255.201L209.026 258.493L207.067 261.731L205.031 264.914L202.918 268.04L200.732 271.107L198.475 274.112L196.151 277.056L193.763 279.935L191.314 282.749L188.81 285.496L186.255 288.177L183.652 290.789L181.008 293.334L178.326 295.81L175.611 298.217L172.869 300.557L170.102 302.828L167.317 305.033L164.518 307.171L161.708 309.244L158.894 311.253L156.078 313.199L153.265 315.085L150.46 316.911L147.666 318.68L144.887 320.394L142.126 322.055L139.388 323.665L136.674 325.228L133.989 326.745L131.335 328.219L128.714 329.653L126.13 331.05L123.583 332.412L121.076 333.743L118.611 335.046L116.189 336.322L113.812 337.576L111.479 338.81L109.192 340.027L106.952 341.23L104.758 342.422L102.611 343.605L100.511 344.782L98.4559 345.955L96.4468 347.127L94.4823 348.3L92.5615 349.477L90.6831 350.659L88.846 351.849L87.0485 353.048L85.289 354.257L83.5661 355.479L81.878 356.716L80.2231 357.968L78.5998 359.237L77.0064 360.525L75.441 361.833L73.902 363.162L72.3874 364.514L70.8955 365.89L69.4242 367.291L67.9715 368.717L66.5353 370.17L65.1137 371.65L63.7043 373.158L62.305 374.695L60.9136 376.259L59.5278 377.853L58.1452 379.475L56.7636 381.125L55.3806 382.804L53.9938 384.511L52.6009 386.245L51.1997 388.006L49.7876 389.792L48.3625 391.603L46.9221 393.437L45.4643 395.294L43.9867 397.172L42.4874 399.069L40.9644 400.985L39.4155 402.916L37.8391 404.863L36.2333 406.822L34.5964 408.792L32.9269 410.771L31.2231 412.757L29.4838 414.748L27.7075 416.742L25.8931 418.737L24.0395 420.731L22.1455 422.722L20.2104 424.707L18.2332 426.685L16.2133 428.653L14.15 430.608L12.0429 432.55L9.8914 434.475L7.69529 436.381L5.45431 438.267L3.16829 440.13L0.837205 441.968L-1.53893 443.778L-3.95996 445.56L-6.42569 447.309L-8.93583 449.026L-11.49 450.706L-14.0877 452.349L-16.7284 453.952L-19.4115 455.514L-22.1362 457.031L-24.9018 458.503L-27.7074 459.927L-30.5521 461.3L-33.4348 462.622L-36.3544 463.891L-39.3096 465.103L-42.2993 466.258L-45.3221 467.353L-48.3765 468.387L-51.4611 469.357L-54.5742 470.262L-57.7142 471.101L-60.8792 471.87L-64.0676 472.57L-67.2773 473.197L-70.5063 473.75L-73.7525 474.227L-77.0134 474.625L-80.2866 474.942L-83.5693 475.176L-86.8586 475.324L-90.1514 475.382L-93.4446 475.349L-96.7346 475.221L-100.018 474.996L-103.291 474.672L-106.549 474.245L-109.789 473.714L-113.006 473.077L-116.196 472.331L-119.355 471.476L-122.479 470.51L-125.563 469.432L-128.602 468.241L-131.593 466.938L-134.53 465.521L-137.411 463.992L-140.229 462.352L-142.983 460.601L-145.667 458.741L-148.278 456.773L-150.812 454.701L-153.266 452.525L-155.638 450.251L-157.923 447.879L-160.12 445.415L-162.226 442.86L-164.239 440.221L-166.158 437.5L-167.981 434.702L-169.706 431.832L-171.334 428.895L-172.865 425.896L-174.298 422.84L-175.634 419.733L-176.874 416.581L-178.019 413.388L-179.072 410.162L-180.035 406.908L-180.911 403.632L-181.702 400.338L-182.412 397.034L-183.045 393.725L-183.605 390.416L-184.097 387.112L-184.525 383.818L-184.894 380.54L-185.211 377.281L-185.479 374.047L-185.706 370.84L-185.896 367.666L-186.057 364.526L-186.193 361.425L-186.311 358.364L-186.417 355.346L-186.518 352.372L-186.618 349.445L-186.724 346.565L-186.842 343.732L-186.978 340.947L-187.135 338.211L-187.321 335.521L-187.539 332.878L-187.794 330.28L-188.09 327.725L-188.431 325.212L-188.82 322.738" fill="url(#paint0_linear_6:82)"/>
<defs>
<linearGradient id="paint0_linear_6:82" x1="-233.863" y1="248.559" x2="-169.767" y2="-200.665" gradientUnits="userSpaceOnUse">
<stop stop-color="#FF72AD"/>
<stop offset="1" stop-color="#FFECAA"/>
</linearGradient>
</defs>
</svg>
